<svg width="183" height="91" viewBox="0 0 183 91" fill="none" xmlns="http://www.w3.org/2000/svg">
<mask id="mask0_4514_57555" style="mask-type:luminance" maskUnits="userSpaceOnUse" x="134" y="48" width="13" height="15">
<path d="M146.05 48.9775H134.05V62.4575H146.05V48.9775Z" fill="white"/>
</mask>
<g mask="url(#mask0_4514_57555)">
<path d="M142.01 48.9775L135.98 49.9875L137.72 60.4175L134.04 61.0275V62.4575H146.05V52.7475L142.6 53.2275L142.01 48.9875V48.9775Z" fill="#FC7E7E"/>
</g>
<path d="M135.98 49.9775L142.01 48.9675L141.11 42.5075H138.56V39.8675H142.99L136.41 38.1675L133.77 48.3975L123.48 45.7375V51.8675H134.05V61.0075L137.73 60.3975L135.99 49.9675L135.98 49.9775Z" fill="#000091"/>
<path d="M143.41 35.0275H146.05V29.2975H134.04V39.8675H123.47V45.7375L133.76 48.3975L136.4 38.1675L142.98 39.8675H143.4V35.0275H143.41Z" fill="#E1000F"/>
<path d="M146.05 47.3575H143.41V42.5175H141.11C141.47 45.0875 142.25 50.7075 142.6 53.2175L146.05 52.7375V51.8775H156.62V39.8675H150.87V42.5075H146.05V47.3475V47.3575Z" fill="#ABB7DE"/>
<path d="M150.87 39.8775H146.04V35.0475H143.4V39.8775H138.57V42.5175H143.4V47.3475H146.04V42.5175H150.87V39.8775Z" fill="white"/>
<path d="M29.1 38.8575C30.13 40.4875 33.44 41.3675 33.61 38.9475C33.61 36.6475 27.72 37.1675 27.72 32.8775C27.63 28.5175 34.29 28.1175 36.35 31.3175L34.44 33.0275C33.48 31.4075 30.63 30.5675 30.37 32.7675C30.37 35.0675 36.26 34.5375 36.26 38.8975C36.26 43.6475 29.29 43.6975 27.21 40.6075L29.1 38.8575Z" fill="black"/>
<path d="M39.1797 29.5075H46.6897V31.7375H41.7997V34.7175H45.9597V36.9475H41.7997V40.1675H46.6897V42.3975H39.1797V29.5175V29.5075Z" fill="black"/>
<path d="M52.5104 31.7375V34.9575C56.8704 35.6575 56.9004 31.0475 52.5104 31.7375ZM49.9004 29.5075H53.8404C58.4604 29.0875 60.1104 34.8075 56.3604 36.6775L60.4104 42.3775H57.2804L53.8604 37.1675H52.5204V42.3775H49.9104V29.4975L49.9004 29.5075Z" fill="black"/>
<path d="M62.8696 29.5075L66.6796 39.5675L70.4896 29.5075H73.2696L68.3996 42.3875H64.9796L60.0996 29.5075H62.8796H62.8696Z" fill="black"/>
<path d="M75.4297 29.5075H78.0397V42.3875H75.4297V29.5075Z" fill="black"/>
<path d="M90.9395 38.5475L92.9995 40.1275C89.4795 45.2475 80.2695 42.2175 80.7295 35.9475C80.2795 29.6775 89.4595 26.6775 92.9995 31.7575L90.9395 33.3575C88.7795 30.0275 83.1595 31.8075 83.4195 35.9475C83.1595 40.0875 88.7895 41.8775 90.9395 38.5375" fill="black"/>
<path d="M95.4502 29.5075H102.96V31.7375H98.0702V34.7175H102.23V36.9475H98.0702V40.1675H102.96V42.3975H95.4502V29.5175V29.5075Z" fill="black"/>
<path d="M106.91 38.8575C107.94 40.4875 111.25 41.3675 111.42 38.9475C111.42 36.6475 105.53 37.1675 105.53 32.8775C105.44 28.5175 112.1 28.1175 114.16 31.3175L112.25 33.0275C111.29 31.4075 108.44 30.5675 108.18 32.7675C108.18 35.0675 114.07 34.5375 114.07 38.8975C114.07 43.6475 107.1 43.6975 105.02 40.6075L106.91 38.8575Z" fill="black"/>
<path d="M30.9704 51.2675V54.4875C32.2804 54.4975 34.6004 54.7575 34.4804 52.8475C34.5904 51.0275 32.2404 51.2375 30.9704 51.2675ZM28.3604 49.0375H32.6104C39.9904 49.3275 37.7704 58.0975 30.9704 56.7075V61.9175H28.3604V49.0375Z" fill="black"/>
<path d="M47.1101 49.0475H49.7201C49.4701 53.3475 51.4201 62.7175 44.5001 62.2875C37.6101 62.7175 39.5401 53.3175 39.2901 49.0475H41.9001C42.4701 51.3775 40.1101 60.1875 44.5101 59.8475C48.8701 60.1875 46.5501 51.3375 47.1001 49.0475H47.1101Z" fill="black"/>
<path d="M55.7499 56.3275V59.6975C60.3499 60.4075 60.3799 55.5975 55.7499 56.3275ZM55.7499 51.2675V54.0775C59.3299 54.6975 59.3399 50.6575 55.7499 51.2675ZM53.1399 49.0375H56.7999C60.6899 48.7475 62.6199 52.8875 59.7399 55.0675C63.7399 56.9975 61.6899 62.2975 57.0699 61.9075H53.1299V49.0275L53.1399 49.0375Z" fill="black"/>
<path d="M64.7102 49.0475H67.3202V59.5475H72.2102V61.9175H64.7002V49.0375L64.7102 49.0475Z" fill="black"/>
<path d="M74.7002 49.0475H77.3102V61.9275H74.7002V49.0475Z" fill="black"/>
<path d="M90.21 58.0775L92.27 59.6575C88.75 64.7775 79.54 61.7475 80 55.4775C79.55 49.2075 88.73 46.2075 92.27 51.2875L90.21 52.8875C88.05 49.5575 82.43 51.3375 82.69 55.4775C82.43 59.6175 88.06 61.4075 90.21 58.0675" fill="black"/>
<path d="M95.5004 58.3875C96.5304 60.0175 99.8404 60.8975 100.01 58.4775C100.01 56.1775 94.1204 56.6975 94.1204 52.4075C94.0304 48.0475 100.69 47.6475 102.75 50.8475L100.84 52.5575C99.8803 50.9375 97.0303 50.0975 96.7703 52.2975C96.7703 54.5975 102.66 54.0675 102.66 58.4275C102.66 63.1775 95.6904 63.2275 93.6104 60.1375L95.5004 58.3875Z" fill="black"/>
</svg>
