<svg width="183" height="90" viewBox="0 0 183 90" fill="none" xmlns="http://www.w3.org/2000/svg">
<mask id="mask0_4514_57587" style="mask-type:luminance" maskUnits="userSpaceOnUse" x="134" y="48" width="13" height="15">
<path d="M146.05 48.79H134.05V62.27H146.05V48.79Z" fill="white"/>
</mask>
<g mask="url(#mask0_4514_57587)">
<path d="M142.01 48.79L135.98 49.8L137.72 60.23L134.04 60.84V62.27H146.05V52.56L142.6 53.04L142.01 48.8V48.79Z" fill="#FC7E7E"/>
</g>
<path d="M135.98 49.79L142.01 48.78L141.11 42.32H138.56V39.68H142.99L136.41 37.98L133.77 48.21L123.48 45.55V51.68H134.05V60.82L137.73 60.21L135.99 49.78L135.98 49.79Z" fill="#000091"/>
<path d="M143.41 34.84H146.05V29.11H134.04V39.68H123.47V45.55L133.76 48.21L136.4 37.98L142.98 39.68H143.4V34.84H143.41Z" fill="#E1000F"/>
<path d="M146.05 47.17H143.41V42.33H141.11C141.47 44.9 142.25 50.52 142.6 53.03L146.05 52.55V51.69H156.62V39.68H150.87V42.32H146.05V47.16V47.17Z" fill="#ABB7DE"/>
<path d="M150.87 39.69H146.04V34.86H143.4V39.69H138.57V42.33H143.4V47.16H146.04V42.33H150.87V39.69Z" fill="white"/>
<path d="M29.1 38.67C30.13 40.3 33.44 41.18 33.61 38.76C33.61 36.46 27.72 36.98 27.72 32.69C27.63 28.33 34.29 27.93 36.35 31.13L34.44 32.84C33.48 31.22 30.63 30.38 30.37 32.58C30.37 34.88 36.26 34.35 36.26 38.71C36.26 43.46 29.29 43.51 27.21 40.42L29.1 38.67Z" fill="white"/>
<path d="M39.1797 29.32H46.6897V31.55H41.7997V34.53H45.9597V36.76H41.7997V39.98H46.6897V42.21H39.1797V29.33V29.32Z" fill="white"/>
<path d="M52.5104 31.55V34.77C56.8704 35.47 56.9004 30.86 52.5104 31.55ZM49.9004 29.32H53.8404C58.4604 28.9 60.1104 34.62 56.3604 36.49L60.4104 42.19H57.2804L53.8604 36.98H52.5204V42.19H49.9104V29.31L49.9004 29.32Z" fill="white"/>
<path d="M62.8696 29.32L66.6796 39.38L70.4896 29.32H73.2696L68.3996 42.2H64.9796L60.0996 29.32H62.8796H62.8696Z" fill="white"/>
<path d="M75.4297 29.32H78.0397V42.2H75.4297V29.32Z" fill="white"/>
<path d="M90.9395 38.36L92.9995 39.94C89.4795 45.06 80.2695 42.03 80.7295 35.76C80.2795 29.49 89.4595 26.49 92.9995 31.57L90.9395 33.17C88.7795 29.84 83.1595 31.62 83.4195 35.76C83.1595 39.9 88.7895 41.69 90.9395 38.35" fill="white"/>
<path d="M95.4502 29.32H102.96V31.55H98.0702V34.53H102.23V36.76H98.0702V39.98H102.96V42.21H95.4502V29.33V29.32Z" fill="white"/>
<path d="M106.91 38.67C107.94 40.3 111.25 41.18 111.42 38.76C111.42 36.46 105.53 36.98 105.53 32.69C105.44 28.33 112.1 27.93 114.16 31.13L112.25 32.84C111.29 31.22 108.44 30.38 108.18 32.58C108.18 34.88 114.07 34.35 114.07 38.71C114.07 43.46 107.1 43.51 105.02 40.42L106.91 38.67Z" fill="white"/>
<path d="M30.9704 51.08V54.3C32.2804 54.31 34.6004 54.57 34.4804 52.66C34.5904 50.84 32.2404 51.05 30.9704 51.08ZM28.3604 48.85H32.6104C39.9904 49.14 37.7704 57.91 30.9704 56.52V61.73H28.3604V48.85Z" fill="white"/>
<path d="M47.1101 48.86H49.7201C49.4701 53.16 51.4201 62.53 44.5001 62.1C37.6101 62.53 39.5401 53.13 39.2901 48.86H41.9001C42.4701 51.19 40.1101 60 44.5101 59.66C48.8701 60 46.5501 51.15 47.1001 48.86H47.1101Z" fill="white"/>
<path d="M55.7499 56.14V59.51C60.3499 60.22 60.3799 55.41 55.7499 56.14ZM55.7499 51.08V53.89C59.3299 54.51 59.3399 50.47 55.7499 51.08ZM53.1399 48.85H56.7999C60.6899 48.56 62.6199 52.7 59.7399 54.88C63.7399 56.81 61.6899 62.11 57.0699 61.72H53.1299V48.84L53.1399 48.85Z" fill="white"/>
<path d="M64.7102 48.86H67.3202V59.36H72.2102V61.73H64.7002V48.85L64.7102 48.86Z" fill="white"/>
<path d="M74.7002 48.86H77.3102V61.74H74.7002V48.86Z" fill="white"/>
<path d="M90.21 57.89L92.27 59.47C88.75 64.59 79.54 61.56 80 55.29C79.55 49.02 88.73 46.02 92.27 51.1L90.21 52.7C88.05 49.37 82.43 51.15 82.69 55.29C82.43 59.43 88.06 61.22 90.21 57.88" fill="white"/>
<path d="M95.5004 58.2C96.5304 59.83 99.8404 60.71 100.01 58.29C100.01 55.99 94.1204 56.51 94.1204 52.22C94.0304 47.86 100.69 47.46 102.75 50.66L100.84 52.37C99.8803 50.75 97.0303 49.91 96.7703 52.11C96.7703 54.41 102.66 53.88 102.66 58.24C102.66 62.99 95.6904 63.04 93.6104 59.95L95.5004 58.2Z" fill="white"/>
</svg>
