<svg width="183" height="90" viewBox="0 0 183 90" fill="none" xmlns="http://www.w3.org/2000/svg">
<path d="M84.6504 43.9004C84.7504 43.8304 84.7504 43.8404 84.6504 43.9004V43.9004Z" fill="#2DAAE1"/>
<path d="M84.6504 43.9004C84.7504 43.8304 84.7504 43.8404 84.6504 43.9004V43.9004Z" fill="#2DAAE1"/>
<path d="M119.601 28.2796C119.831 28.8896 120.441 28.9996 120.851 28.5396C122.781 26.3996 123.631 24.4796 124.941 22.1096C125.451 21.1896 125.501 21.0696 126.061 20.1796C126.291 19.8196 126.931 18.8696 127.281 18.6096C127.821 18.2096 128.621 17.8796 129.251 17.8396C129.841 17.8096 130.491 17.5696 130.871 18.2396C131.451 19.2596 129.191 21.7396 128.631 22.7396C125.991 27.4696 123.591 32.0096 120.621 36.5396C120.131 37.2896 119.541 38.6496 119.261 39.4996C119.141 39.8596 118.971 40.1896 118.721 40.4796C117.981 41.3496 116.641 41.1696 116.201 40.1296C115.791 39.1396 115.821 38.3996 116.421 37.2296C118.681 32.7896 118.151 32.8896 117.711 30.9896C117.081 28.2796 116.851 26.6596 116.131 23.9696C115.661 22.2596 115.511 21.4396 115.551 20.5996C115.601 19.6196 116.701 18.6396 117.241 18.7396C117.901 18.8696 118.181 19.4496 118.391 20.4096C118.861 22.5496 118.591 22.7296 119.031 25.4696C119.091 25.8396 119.371 27.6796 119.591 28.2596L119.601 28.2796Z" fill="#2DAAE1"/>
<path d="M137.592 31.1103C137.832 30.9403 138.072 30.7503 138.312 30.5703C138.212 30.6403 137.932 30.8503 137.592 31.1103ZM137.592 31.1103C137.482 31.1903 137.372 31.2803 137.252 31.3603C137.372 31.2703 137.482 31.1903 137.592 31.1103Z" fill="#2DAAE1"/>
<path d="M166.472 26.4384C166.362 26.0584 165.852 25.9784 165.432 25.9684C164.042 25.9484 163.082 26.3284 161.942 27.1084C161.102 27.6884 160.852 27.8684 160.012 28.4684C159.782 28.6284 159.052 29.2884 158.792 29.5084C158.512 29.7584 158.042 29.5884 158.002 29.2184C157.922 28.5884 158.162 28.0584 158.242 27.6484C158.362 27.0584 158.752 26.4584 158.272 26.1184C157.592 25.6384 156.622 25.7484 155.882 26.4884C155.282 27.0784 155.442 27.6184 155.322 28.5484C155.122 29.9284 154.892 31.3284 154.332 32.6084C153.692 34.0684 153.122 35.5384 151.832 36.5284C151.402 36.8584 150.162 38.0084 149.512 36.8284C149.252 36.3484 150.042 34.1884 150.172 33.8484C150.772 32.2484 150.872 32.1184 151.422 30.4984C151.762 29.4784 151.322 28.6884 150.282 28.1484C149.422 27.7084 148.672 27.8884 147.992 28.7284C147.692 29.0984 145.282 35.5684 143.642 37.7184C143.372 38.0784 142.952 38.7584 141.892 38.3384C141.182 38.0584 141.222 37.1684 141.252 36.8084C141.342 35.8984 141.742 34.6984 142.062 33.8384C142.562 32.5184 143.052 31.2684 143.292 29.9984C143.562 28.5984 142.212 28.3684 140.882 28.8784C140.632 28.9784 140.392 29.1184 140.162 29.2684C139.542 29.6484 138.942 30.0984 138.332 30.5584C138.332 30.5584 138.312 30.5684 138.312 30.5784C137.972 30.8384 137.622 31.1084 137.262 31.3684C137.112 31.4884 136.952 31.5984 136.792 31.6984C136.662 31.7884 136.542 31.8784 136.422 31.9584C135.962 32.2684 135.562 32.4684 135.422 32.3984C135.362 32.3784 135.342 32.3084 135.362 32.2484C135.412 32.0284 135.512 31.5184 135.552 31.3884C136.112 29.6284 135.782 28.2384 134.602 27.2884C133.452 26.3784 132.242 26.0784 130.982 26.8584C130.742 27.0084 130.522 27.1684 130.292 27.3384C127.352 29.5684 125.822 32.5884 125.112 36.0784C124.722 37.9484 125.522 39.3284 126.902 40.4584C127.732 41.1284 128.732 41.3384 129.822 41.1084C131.002 40.8584 131.812 40.1584 132.442 39.1984C133.162 38.0984 133.902 36.5584 134.332 35.3284C134.642 34.4584 136.012 33.1084 136.992 32.6184C137.472 32.3784 137.972 32.1284 138.402 32.0984C138.712 32.0784 138.982 32.2784 138.882 32.5784C138.492 33.8084 137.742 36.2484 137.532 37.4484C137.362 38.3784 137.672 39.7584 138.462 40.2984C140.092 41.4284 141.492 41.9684 143.472 40.9084C144.292 40.4684 144.902 39.9784 145.582 39.3684C146.102 38.8984 146.352 38.4284 146.842 37.9784C146.972 37.8584 147.252 37.6184 147.392 37.7384C147.522 37.8384 147.482 38.1784 147.512 38.3484C147.912 40.4184 149.082 40.7284 150.722 39.3884C151.262 38.9484 151.592 38.4584 152.052 37.9484C152.142 37.8484 153.322 36.4284 153.512 36.5584C153.642 36.6484 153.082 38.0884 153.042 38.2084C152.882 38.7084 152.712 39.0484 152.562 39.5484C152.442 39.9884 152.542 40.4784 152.742 40.6384C153.372 41.1384 154.852 41.0884 155.262 40.4784C155.952 39.4584 155.992 38.3984 156.422 37.2284C157.492 34.3184 158.852 31.1784 161.752 29.3884C163.262 28.4584 164.452 27.8384 166.072 27.1384C166.382 27.0084 166.582 26.8684 166.452 26.4384H166.472ZM130.262 37.7284C129.892 38.3784 126.842 39.3284 127.682 36.2984C128.012 35.1184 129.512 31.4584 131.282 29.7084C131.282 29.7084 132.512 28.0684 132.962 30.5084C133.162 31.6084 132.352 34.0284 130.272 37.7184L130.262 37.7284Z" fill="#2DAAE1"/>
<path d="M97.7925 24.2789C95.9325 24.3289 95.7225 21.4489 97.3025 20.6989C99.0225 19.8789 99.7925 20.5689 99.8025 21.9989C99.8225 23.2189 99.5025 24.0089 97.7925 24.2789Z" fill="#2DAAE1"/>
<path d="M105.373 21.9313C103.513 21.9813 103.303 19.1013 104.883 18.3513C106.603 17.5313 107.373 18.2213 107.383 19.6513C107.403 20.8713 107.083 21.6613 105.373 21.9313Z" fill="#2DAAE1"/>
<path d="M110.062 22.6397C110.062 22.8597 110.012 23.0797 109.962 23.2897C109.442 25.9297 108.722 28.5297 107.672 31.0097C107.152 32.2497 106.522 33.4497 105.752 34.5597C105.362 35.1197 104.902 35.6097 104.452 36.1097C104.012 36.6197 103.472 37.0497 102.912 37.4297C101.782 38.1597 100.392 38.6297 99.0217 38.3997C97.6517 38.1897 96.4517 37.3997 95.4917 36.4497C94.5417 35.4797 93.7417 34.3697 93.0817 33.1997C92.7517 32.6097 92.4317 32.0197 92.1417 31.3997L91.7217 30.4897C91.5717 30.1997 91.4417 29.8297 91.4517 29.4697C91.4517 29.1097 91.5117 28.7497 91.6917 28.4197C91.8917 28.0897 92.1917 27.8897 92.4417 27.6897C92.6817 27.4797 92.9817 27.2397 93.3217 27.1197C93.6617 26.9897 94.0717 26.9997 94.4117 27.1197C94.7517 27.2497 95.0717 27.4797 95.2817 27.7797C95.4917 28.0897 95.5817 28.4597 95.6117 28.8097C95.6217 28.9997 95.6117 29.1697 95.5817 29.3497C95.5617 29.5297 95.4817 29.7097 95.4817 29.8197C95.4817 30.1097 95.5717 30.4397 95.6517 30.7597C96.0017 32.0497 96.5117 33.2797 97.4817 34.1797C97.9417 34.6597 98.4517 35.0697 99.0517 35.2797C99.6517 35.4997 100.312 35.5097 100.942 35.3697C102.202 35.0697 103.322 34.2797 104.192 33.2897C105.072 32.2997 105.822 31.1797 106.432 29.9897C107.062 28.8097 107.502 27.5397 107.912 26.2597C108.322 24.9797 108.682 23.6897 109.032 22.3897C109.042 22.3697 109.042 22.3597 109.052 22.3497V22.3097C109.052 22.3097 109.082 22.2697 109.102 22.2397V22.2197C109.202 22.0897 109.342 21.9397 109.532 21.9297C109.732 21.9297 109.862 22.0797 109.952 22.2297C109.982 22.2897 109.992 22.3297 110.012 22.3897C110.022 22.4897 110.032 22.5697 110.032 22.6497L110.062 22.6397Z" fill="#2DAAE1"/>
<path d="M91.7422 43H103.582V46.05H96.1722V48.32H103.052V51.24H96.1722V54.06H103.802V57.3H91.7522V43.01L91.7422 43Z" fill="#164194"/>
<path d="M116.782 57.2897H113.082V55.6097C112.532 56.2997 111.972 56.7897 111.412 57.0797C110.852 57.3697 110.162 57.5197 109.342 57.5197C108.252 57.5197 107.392 57.1897 106.772 56.5397C106.152 55.8897 105.842 54.8797 105.842 53.5197V46.9297H109.832V52.6197C109.832 53.2697 109.952 53.7297 110.192 54.0097C110.432 54.2797 110.772 54.4197 111.202 54.4197C111.672 54.4197 112.062 54.2397 112.362 53.8697C112.662 53.4997 112.812 52.8497 112.812 51.9097V46.9297H116.782V57.2897Z" fill="#164194"/>
<path d="M119.182 46.9409H122.892V48.6309C123.252 47.9009 123.622 47.3909 124.002 47.1209C124.382 46.8509 124.852 46.7109 125.412 46.7109C125.972 46.7109 126.632 46.8909 127.332 47.2609L126.102 50.0909C125.632 49.9009 125.262 49.8009 124.992 49.8009C124.472 49.8009 124.062 50.0209 123.782 50.4509C123.372 51.0609 123.172 52.1809 123.172 53.8409V57.3109H119.182V46.9509V46.9409Z" fill="#164194"/>
<path d="M127.463 52.1492C127.463 50.5692 127.993 49.2692 129.063 48.2392C130.133 47.2192 131.563 46.6992 133.383 46.6992C135.453 46.6992 137.023 47.2992 138.083 48.4992C138.933 49.4692 139.353 50.6592 139.353 52.0792C139.353 53.6792 138.823 54.9792 137.773 55.9892C136.723 57.0092 135.253 57.5192 133.393 57.5192C131.723 57.5192 130.383 57.0892 129.363 56.2492C128.103 55.2092 127.473 53.8392 127.473 52.1392L127.463 52.1492ZM131.443 52.1392C131.443 53.0692 131.633 53.7492 132.003 54.1892C132.373 54.6292 132.843 54.8492 133.413 54.8492C133.983 54.8492 134.453 54.6292 134.823 54.1992C135.193 53.7692 135.373 53.0592 135.373 52.0992C135.373 51.1992 135.183 50.5292 134.823 50.0992C134.453 49.6592 133.993 49.4392 133.453 49.4392C132.873 49.4392 132.403 49.6592 132.023 50.1092C131.643 50.5492 131.453 51.2292 131.453 52.1392H131.443Z" fill="#164194"/>
<path d="M141.252 61.2309V46.9409H144.962V48.4709C145.472 47.8209 145.942 47.3909 146.372 47.1709C146.952 46.8709 147.592 46.7109 148.292 46.7109C149.682 46.7109 150.752 47.2409 151.502 48.3009C152.252 49.3609 152.642 50.6709 152.642 52.2309C152.642 53.9509 152.232 55.2709 151.402 56.1709C150.572 57.0809 149.532 57.5309 148.272 57.5309C147.662 57.5309 147.102 57.4309 146.602 57.2209C146.102 57.0109 145.652 56.7009 145.252 56.2909V61.2309H141.242H141.252ZM145.232 52.1409C145.232 52.9609 145.402 53.5709 145.752 53.9609C146.092 54.3609 146.532 54.5509 147.052 54.5509C147.512 54.5509 147.902 54.3609 148.212 53.9809C148.522 53.6009 148.682 52.9609 148.682 52.0509C148.682 51.2109 148.522 50.5909 148.192 50.2009C147.862 49.8009 147.472 49.6109 147.002 49.6109C146.492 49.6109 146.072 49.8109 145.732 50.2009C145.402 50.6009 145.232 51.2409 145.232 52.1309V52.1409Z" fill="#164194"/>
<path d="M166.002 53.0987H158.042C158.112 53.7287 158.282 54.2087 158.562 54.5287C158.942 54.9787 159.442 55.2087 160.062 55.2087C160.452 55.2087 160.822 55.1087 161.172 54.9187C161.392 54.7987 161.612 54.5787 161.862 54.2687L165.772 54.6287C165.172 55.6687 164.452 56.4187 163.602 56.8687C162.762 57.3187 161.542 57.5487 159.962 57.5487C158.592 57.5487 157.512 57.3588 156.722 56.9688C155.932 56.5887 155.282 55.9687 154.762 55.1187C154.242 54.2787 153.992 53.2888 153.992 52.1488C153.992 50.5288 154.512 49.2188 155.542 48.2188C156.572 47.2188 158.012 46.7188 159.842 46.7188C161.322 46.7188 162.492 46.9488 163.352 47.3988C164.212 47.8488 164.862 48.4987 165.312 49.3487C165.762 50.1987 165.992 51.3087 165.992 52.6687V53.1187L166.002 53.0987ZM161.962 51.1987C161.882 50.4287 161.672 49.8787 161.342 49.5487C161.002 49.2187 160.572 49.0588 160.022 49.0588C159.392 49.0588 158.882 49.3088 158.512 49.8088C158.272 50.1188 158.112 50.5787 158.052 51.1987H161.962Z" fill="#164194"/>
<path d="M76.9709 17.7305H17.4609V57.4005H76.9709V17.7305Z" fill="#164194"/>
<path d="M45.9406 26.3705L47.1906 25.4605L48.4506 26.3705L47.9706 24.8905L49.2406 23.9805H47.6706L47.1906 22.4805L46.7106 23.9805H45.1406L46.4106 24.8905L45.9406 26.3705Z" fill="#FFED00"/>
<path d="M39.4406 28.1188L40.7006 27.2087L41.9506 28.1188L41.4706 26.6388L42.7506 25.7188H41.1706L40.7006 24.2188L40.2106 25.7288L38.6406 25.7188L39.9206 26.6388L39.4406 28.1188Z" fill="#FFED00"/>
<path d="M35.9406 28.9922L35.4606 30.4922H33.8906L35.1606 31.4022L34.6806 32.8922L35.9406 31.9722L37.2006 32.8922L36.7206 31.4022L38.0006 30.4922H36.4206L35.9406 28.9922Z" fill="#FFED00"/>
<path d="M34.2006 38.4605L35.4506 39.3705L34.9706 37.8905L36.2506 36.9805H34.6806L34.2006 35.4805L33.7206 36.9805H32.1406L33.4206 37.8905L32.9406 39.3705L34.2006 38.4605Z" fill="#FFED00"/>
<path d="M36.4206 43.4922L35.9406 41.9922L35.4606 43.4922H33.8906L35.1606 44.4022L34.6806 45.8822L35.9406 44.9722L37.2006 45.8822L36.7206 44.4022L38.0006 43.4922H36.4206Z" fill="#FFED00"/>
<path d="M41.1904 48.25L40.7004 46.75L40.2304 48.25H38.6504L39.9304 49.17L39.4504 50.65L40.7004 49.73L41.9604 50.65L41.4804 49.17L42.7604 48.25H41.1904Z" fill="#FFED00"/>
<path d="M47.6806 49.9787L47.1906 48.4688L46.7106 49.9787H45.1406L46.4106 50.8988L45.9406 52.3687L47.1906 51.4587L48.4506 52.3687L47.9706 50.8988L49.2506 49.9787H47.6806Z" fill="#FFED00"/>
<path d="M54.1609 48.25L53.6909 46.75L53.2009 48.25H51.6309L52.9109 49.17L52.4309 50.65L53.6909 49.73L54.9409 50.65L54.4609 49.17L55.7409 48.25H54.1609Z" fill="#FFED00"/>
<path d="M58.9306 43.4922L58.4506 41.9922L57.9606 43.4922H56.3906L57.6706 44.4022L57.1906 45.8822L58.4506 44.9722L59.7106 45.8822L59.2206 44.4022L60.5006 43.4922H58.9306Z" fill="#FFED00"/>
<path d="M62.2311 36.9609H60.6511L60.1711 35.4609L59.6911 36.9609H58.1211L59.4011 37.8809L58.9211 39.3609L60.1711 38.4409L61.4311 39.3609L60.9511 37.8809L62.2311 36.9609Z" fill="#FFED00"/>
<path d="M57.1906 32.8588L58.4506 31.9488L59.7106 32.8588L59.2206 31.3888L60.5006 30.4688H58.9306L58.4506 28.9688L57.9606 30.4688H56.3906L57.6706 31.3888L57.1906 32.8588Z" fill="#FFED00"/>
<path d="M53.7004 24.2305L53.2204 25.7305L51.6504 25.7205L52.9204 26.6405L52.4504 28.1305L53.7004 27.2105L54.9604 28.1305L54.4804 26.6405L55.7604 25.7205H54.1804L53.7004 24.2305Z" fill="#FFED00"/>
<path d="M20.9705 70.9905V67.0405H19.5605V66.2305H23.3405V67.0405H21.9305V70.9905H20.9705Z" fill="#909090"/>
<path d="M24.8607 66.2305V67.9805C25.1507 67.6405 25.5107 67.4605 25.9207 67.4605C26.1307 67.4605 26.3207 67.5005 26.4907 67.5805C26.6607 67.6605 26.7907 67.7605 26.8707 67.8805C26.9507 68.0005 27.0107 68.1305 27.0507 68.2805C27.0907 68.4305 27.1007 68.6605 27.1007 68.9705V70.9905H26.1907V69.1705C26.1907 68.8105 26.1707 68.5805 26.1407 68.4805C26.1107 68.3805 26.0407 68.3005 25.9607 68.2505C25.8807 68.2005 25.7607 68.1605 25.6307 68.1605C25.4807 68.1605 25.3407 68.2005 25.2207 68.2705C25.1007 68.3405 25.0107 68.4605 24.9607 68.6005C24.9107 68.7405 24.8807 68.9705 24.8807 69.2605V70.9905H23.9707V66.2305H24.8807H24.8607Z" fill="#909090"/>
<path d="M28.0098 67.0783V66.2383H28.9198V67.0783H28.0098ZM28.0098 70.9983V67.5483H28.9198V70.9983H28.0098Z" fill="#909090"/>
<path d="M29.5413 70.0088L30.4612 69.8688C30.5012 70.0488 30.5813 70.1787 30.7013 70.2687C30.8213 70.3587 30.9913 70.4088 31.2013 70.4088C31.4413 70.4088 31.6112 70.3687 31.7312 70.2787C31.8112 70.2187 31.8512 70.1387 31.8512 70.0387C31.8512 69.9687 31.8313 69.9088 31.7913 69.8688C31.7413 69.8288 31.6412 69.7887 31.4812 69.7487C30.7412 69.5887 30.2812 69.4387 30.0812 69.3087C29.8112 69.1187 29.6712 68.8687 29.6712 68.5287C29.6712 68.2287 29.7912 67.9787 30.0212 67.7787C30.2512 67.5787 30.6213 67.4688 31.1213 67.4688C31.6213 67.4688 31.9412 67.5487 32.1712 67.6987C32.4012 67.8487 32.5612 68.0787 32.6412 68.3787L31.7812 68.5387C31.7413 68.4087 31.6712 68.2988 31.5712 68.2288C31.4712 68.1588 31.3212 68.1188 31.1312 68.1188C30.8912 68.1188 30.7212 68.1488 30.6112 68.2188C30.5412 68.2688 30.5112 68.3288 30.5112 68.4088C30.5112 68.4688 30.5412 68.5288 30.6012 68.5788C30.6812 68.6388 30.9713 68.7287 31.4513 68.8387C31.9313 68.9487 32.2813 69.0887 32.4713 69.2487C32.6613 69.4087 32.7612 69.6387 32.7612 69.9287C32.7612 70.2487 32.6312 70.5187 32.3612 70.7387C32.0912 70.9587 31.7112 71.0788 31.1912 71.0788C30.7212 71.0788 30.3512 70.9787 30.0712 70.7887C29.7912 70.5987 29.6213 70.3388 29.5312 70.0088H29.5413Z" fill="#909090"/>
<path d="M36.0509 70.9891L34.9609 67.5391H35.8509L36.5009 69.7991L37.0909 67.5391H37.9709L38.5409 69.7991L39.2009 67.5391H40.1009L38.9909 70.9891H38.1109L37.5209 68.7691L36.9409 70.9891H36.0509Z" fill="#909090"/>
<path d="M42.5803 69.9009L43.4903 70.0509C43.3703 70.3809 43.1903 70.6409 42.9403 70.8109C42.6903 70.9809 42.3703 71.0709 41.9903 71.0709C41.3903 71.0709 40.9503 70.8709 40.6603 70.4809C40.4303 70.1709 40.3203 69.7709 40.3203 69.2909C40.3203 68.7209 40.4703 68.2709 40.7703 67.9509C41.0703 67.6309 41.4503 67.4609 41.9003 67.4609C42.4103 67.4609 42.8203 67.6309 43.1103 67.9709C43.4003 68.3109 43.5503 68.8309 43.5403 69.5309H41.2503C41.2503 69.8009 41.3303 70.0109 41.4703 70.1609C41.6103 70.3109 41.7903 70.3909 42.0003 70.3909C42.1403 70.3909 42.2603 70.3509 42.3603 70.2709C42.4603 70.1909 42.5303 70.0709 42.5803 69.8909V69.9009ZM42.6303 68.9809C42.6303 68.7209 42.5603 68.5209 42.4303 68.3809C42.3003 68.2409 42.1403 68.1709 41.9603 68.1709C41.7603 68.1709 41.6003 68.2409 41.4703 68.3909C41.3403 68.5409 41.2803 68.7309 41.2803 68.9809H42.6403H42.6303Z" fill="#909090"/>
<path d="M44.2405 70.9905V66.2305H45.1505V67.9405C45.4305 67.6205 45.7605 67.4605 46.1505 67.4605C46.5705 67.4605 46.9205 67.6105 47.1905 67.9205C47.4605 68.2305 47.6005 68.6605 47.6005 69.2305C47.6005 69.8005 47.4605 70.2705 47.1805 70.5905C46.9005 70.9105 46.5605 71.0705 46.1605 71.0705C45.9605 71.0705 45.7705 71.0205 45.5805 70.9205C45.3905 70.8205 45.2205 70.6805 45.0805 70.4805V70.9905H44.2305H44.2405ZM45.1505 69.1905C45.1505 69.5505 45.2105 69.8105 45.3205 69.9805C45.4805 70.2205 45.6905 70.3405 45.9505 70.3405C46.1505 70.3405 46.3205 70.2505 46.4605 70.0805C46.6005 69.9105 46.6705 69.6405 46.6705 69.2705C46.6705 68.8805 46.6005 68.5905 46.4605 68.4205C46.3205 68.2505 46.1305 68.1605 45.9105 68.1605C45.6905 68.1605 45.5105 68.2405 45.3605 68.4105C45.2105 68.5805 45.1405 68.8405 45.1405 69.1805L45.1505 69.1905Z" fill="#909090"/>
<path d="M48.3105 67.5505H49.1605V68.0605C49.2705 67.8905 49.4205 67.7505 49.6105 67.6405C49.8005 67.5305 50.0105 67.4805 50.2405 67.4805C50.6405 67.4805 50.9805 67.6405 51.2605 67.9505C51.5405 68.2605 51.6805 68.7005 51.6805 69.2605C51.6805 69.8205 51.5405 70.2805 51.2605 70.6005C50.9805 70.9205 50.6405 71.0805 50.2405 71.0805C50.0505 71.0805 49.8805 71.0405 49.7205 70.9705C49.5605 70.9005 49.4005 70.7605 49.2305 70.5805V72.3205H48.3205V67.5605L48.3105 67.5505ZM49.2105 69.2205C49.2105 69.6105 49.2905 69.8905 49.4405 70.0805C49.5905 70.2705 49.7805 70.3605 50.0005 70.3605C50.2205 70.3605 50.3905 70.2805 50.5305 70.1105C50.6705 69.9405 50.7405 69.6605 50.7405 69.2705C50.7405 68.9105 50.6705 68.6405 50.5205 68.4605C50.3705 68.2805 50.2005 68.2005 49.9805 68.2005C49.7605 68.2005 49.5705 68.2905 49.4205 68.4605C49.2705 68.6305 49.2005 68.8905 49.2005 69.2205H49.2105Z" fill="#909090"/>
<path d="M53.0806 68.5987L52.2506 68.4487C52.3406 68.1187 52.5006 67.8687 52.7306 67.7087C52.9606 67.5487 53.2906 67.4688 53.7406 67.4688C54.1506 67.4688 54.4506 67.5187 54.6506 67.6087C54.8506 67.6987 54.9906 67.8288 55.0706 67.9788C55.1506 68.1288 55.1906 68.3988 55.1906 68.7988V69.8587C55.1906 70.1587 55.1906 70.3887 55.2206 70.5287C55.2506 70.6687 55.3006 70.8287 55.3806 70.9887H54.4806C54.4606 70.9287 54.4306 70.8387 54.3906 70.7188C54.3706 70.6688 54.3606 70.6287 54.3606 70.6087C54.2006 70.7587 54.0406 70.8687 53.8606 70.9487C53.6806 71.0287 53.4906 71.0587 53.2906 71.0587C52.9306 71.0587 52.6606 70.9587 52.4506 70.7687C52.2406 70.5787 52.1406 70.3287 52.1406 70.0387C52.1406 69.8487 52.1906 69.6687 52.2806 69.5187C52.3706 69.3687 52.5006 69.2487 52.6706 69.1687C52.8406 69.0887 53.0806 69.0187 53.4006 68.9587C53.8306 68.8787 54.1206 68.8087 54.2906 68.7387V68.6488C54.2906 68.4688 54.2506 68.3487 54.1606 68.2687C54.0706 68.1887 53.9106 68.1588 53.6706 68.1588C53.5106 68.1588 53.3806 68.1888 53.2906 68.2588C53.2006 68.3288 53.1306 68.4387 53.0706 68.5987H53.0806ZM54.3006 69.3387C54.1806 69.3787 54.0006 69.4288 53.7406 69.4788C53.4806 69.5288 53.3206 69.5887 53.2406 69.6387C53.1206 69.7187 53.0606 69.8287 53.0606 69.9587C53.0606 70.0887 53.1106 70.1987 53.2006 70.2887C53.2906 70.3787 53.4206 70.4287 53.5606 70.4287C53.7206 70.4287 53.8806 70.3787 54.0306 70.2687C54.1406 70.1887 54.2106 70.0887 54.2506 69.9688C54.2706 69.8888 54.2906 69.7387 54.2906 69.5287V69.3487L54.3006 69.3387Z" fill="#909090"/>
<path d="M56.0106 71.2188L57.0506 71.3487C57.0706 71.4687 57.1106 71.5487 57.1706 71.5987C57.2606 71.6587 57.3906 71.6987 57.5806 71.6987C57.8206 71.6987 58.0006 71.6587 58.1206 71.5887C58.2006 71.5387 58.2606 71.4587 58.3006 71.3587C58.3306 71.2787 58.3406 71.1388 58.3406 70.9388V70.4388C58.0706 70.8088 57.7206 70.9987 57.3106 70.9987C56.8506 70.9987 56.4806 70.7988 56.2106 70.4088C56.0006 70.0988 55.8906 69.7187 55.8906 69.2487C55.8906 68.6687 56.0306 68.2287 56.3106 67.9287C56.5906 67.6287 56.9306 67.4688 57.3506 67.4688C57.7706 67.4688 58.1306 67.6587 58.4106 68.0287V67.5488H59.2606V70.6387C59.2606 71.0487 59.2306 71.3488 59.1606 71.5488C59.0906 71.7488 59.0006 71.9087 58.8806 72.0187C58.7606 72.1287 58.6006 72.2187 58.3906 72.2887C58.1806 72.3587 57.9306 72.3887 57.6206 72.3887C57.0406 72.3887 56.6206 72.2887 56.3806 72.0887C56.1406 71.8887 56.0106 71.6388 56.0106 71.3288C56.0106 71.2988 56.0106 71.2587 56.0106 71.2188ZM56.8206 69.1987C56.8206 69.5687 56.8906 69.8287 57.0306 69.9987C57.1706 70.1687 57.3506 70.2487 57.5506 70.2487C57.7706 70.2487 57.9606 70.1587 58.1106 69.9887C58.2606 69.8187 58.3406 69.5587 58.3406 69.2188C58.3406 68.8787 58.2706 68.5987 58.1206 68.4187C57.9706 68.2387 57.7906 68.1588 57.5606 68.1588C57.3306 68.1588 57.1606 68.2388 57.0206 68.4088C56.8806 68.5788 56.8106 68.8388 56.8106 69.1888L56.8206 69.1987Z" fill="#909090"/>
<path d="M62.1604 69.9009L63.0704 70.0509C62.9504 70.3809 62.7704 70.6409 62.5204 70.8109C62.2704 70.9809 61.9504 71.0709 61.5704 71.0709C60.9704 71.0709 60.5304 70.8709 60.2404 70.4809C60.0104 70.1709 59.9004 69.7709 59.9004 69.2909C59.9004 68.7209 60.0504 68.2709 60.3504 67.9509C60.6504 67.6309 61.0304 67.4609 61.4804 67.4609C61.9904 67.4609 62.4004 67.6309 62.6904 67.9709C62.9804 68.3109 63.1304 68.8309 63.1204 69.5309H60.8304C60.8304 69.8009 60.9104 70.0109 61.0504 70.1609C61.1904 70.3109 61.3704 70.3909 61.5804 70.3909C61.7204 70.3909 61.8404 70.3509 61.9404 70.2709C62.0404 70.1909 62.1104 70.0709 62.1604 69.8909V69.9009ZM62.2104 68.9809C62.2104 68.7209 62.1404 68.5209 62.0104 68.3809C61.8804 68.2409 61.7204 68.1709 61.5404 68.1709C61.3404 68.1709 61.1804 68.2409 61.0504 68.3909C60.9204 68.5409 60.8604 68.7309 60.8604 68.9809H62.2204H62.2104Z" fill="#909090"/>
<path d="M65.7109 67.0783V66.2383H66.6209V67.0783H65.7109ZM65.7109 70.9983V67.5483H66.6209V70.9983H65.7109Z" fill="#909090"/>
<path d="M67.2307 70.0088L68.1507 69.8688C68.1907 70.0488 68.2707 70.1787 68.3907 70.2687C68.5107 70.3587 68.6807 70.4088 68.8907 70.4088C69.1307 70.4088 69.3007 70.3687 69.4207 70.2787C69.5007 70.2187 69.5407 70.1387 69.5407 70.0387C69.5407 69.9687 69.5207 69.9088 69.4807 69.8688C69.4307 69.8288 69.3307 69.7887 69.1707 69.7487C68.4307 69.5887 67.9707 69.4387 67.7707 69.3087C67.5007 69.1187 67.3607 68.8687 67.3607 68.5287C67.3607 68.2287 67.4807 67.9787 67.7107 67.7787C67.9407 67.5787 68.3107 67.4688 68.8107 67.4688C69.3107 67.4688 69.6307 67.5487 69.8607 67.6987C70.0907 67.8487 70.2507 68.0787 70.3307 68.3787L69.4707 68.5387C69.4307 68.4087 69.3607 68.2988 69.2607 68.2288C69.1607 68.1588 69.0107 68.1188 68.8207 68.1188C68.5807 68.1188 68.4107 68.1488 68.3007 68.2188C68.2307 68.2688 68.2007 68.3288 68.2007 68.4088C68.2007 68.4688 68.2307 68.5288 68.2907 68.5788C68.3707 68.6388 68.6607 68.7287 69.1407 68.8387C69.6207 68.9487 69.9707 69.0887 70.1607 69.2487C70.3507 69.4087 70.4507 69.6387 70.4507 69.9287C70.4507 70.2487 70.3207 70.5187 70.0507 70.7387C69.7807 70.9587 69.4007 71.0788 68.8807 71.0788C68.4107 71.0788 68.0407 70.9787 67.7607 70.7887C67.4807 70.5987 67.3107 70.3388 67.2207 70.0088H67.2307Z" fill="#909090"/>
<path d="M73.0703 67.5505H73.9203V68.0605C74.0303 67.8905 74.1803 67.7505 74.3703 67.6405C74.5603 67.5305 74.7703 67.4805 75.0003 67.4805C75.4003 67.4805 75.7403 67.6405 76.0203 67.9505C76.3003 68.2605 76.4403 68.7005 76.4403 69.2605C76.4403 69.8205 76.3003 70.2805 76.0203 70.6005C75.7403 70.9205 75.4003 71.0805 75.0003 71.0805C74.8103 71.0805 74.6403 71.0405 74.4803 70.9705C74.3203 70.9005 74.1603 70.7605 73.9903 70.5805V72.3205H73.0803V67.5605L73.0703 67.5505ZM73.9703 69.2205C73.9703 69.6105 74.0503 69.8905 74.2003 70.0805C74.3503 70.2705 74.5403 70.3605 74.7603 70.3605C74.9803 70.3605 75.1503 70.2805 75.2903 70.1105C75.4303 69.9405 75.5003 69.6605 75.5003 69.2705C75.5003 68.9105 75.4303 68.6405 75.2803 68.4605C75.1303 68.2805 74.9603 68.2005 74.7403 68.2005C74.5203 68.2005 74.3303 68.2905 74.1803 68.4605C74.0303 68.6305 73.9603 68.8905 73.9603 69.2205H73.9703Z" fill="#909090"/>
<path d="M77.8404 68.5987L77.0104 68.4487C77.1004 68.1187 77.2604 67.8687 77.4904 67.7087C77.7204 67.5487 78.0504 67.4688 78.5004 67.4688C78.9104 67.4688 79.2104 67.5187 79.4104 67.6087C79.6104 67.6987 79.7504 67.8288 79.8304 67.9788C79.9104 68.1288 79.9504 68.3988 79.9504 68.7988V69.8587C79.9504 70.1587 79.9504 70.3887 79.9804 70.5287C80.0104 70.6687 80.0604 70.8287 80.1404 70.9887H79.2404C79.2204 70.9287 79.1904 70.8387 79.1504 70.7188C79.1304 70.6688 79.1204 70.6287 79.1204 70.6087C78.9604 70.7587 78.8004 70.8687 78.6204 70.9487C78.4404 71.0287 78.2504 71.0587 78.0504 71.0587C77.6904 71.0587 77.4204 70.9587 77.2104 70.7687C77.0004 70.5787 76.9004 70.3287 76.9004 70.0387C76.9004 69.8487 76.9504 69.6687 77.0404 69.5187C77.1304 69.3687 77.2604 69.2487 77.4304 69.1687C77.6004 69.0887 77.8404 69.0187 78.1604 68.9587C78.5904 68.8787 78.8804 68.8087 79.0504 68.7387V68.6488C79.0504 68.4688 79.0104 68.3487 78.9204 68.2687C78.8304 68.1887 78.6704 68.1588 78.4304 68.1588C78.2704 68.1588 78.1404 68.1888 78.0504 68.2588C77.9604 68.3288 77.8904 68.4387 77.8304 68.5987H77.8404ZM79.0604 69.3387C78.9404 69.3787 78.7604 69.4288 78.5004 69.4788C78.2404 69.5288 78.0804 69.5887 78.0004 69.6387C77.8804 69.7187 77.8204 69.8287 77.8204 69.9587C77.8204 70.0887 77.8704 70.1987 77.9604 70.2887C78.0504 70.3787 78.1804 70.4287 78.3204 70.4287C78.4804 70.4287 78.6404 70.3787 78.7904 70.2687C78.9004 70.1887 78.9704 70.0887 79.0104 69.9688C79.0304 69.8888 79.0504 69.7387 79.0504 69.5287V69.3487L79.0604 69.3387Z" fill="#909090"/>
<path d="M81.7303 70.9909H80.8203V67.5409H81.6703V68.0309C81.8103 67.8009 81.9503 67.6509 82.0603 67.5709C82.1703 67.4909 82.3103 67.4609 82.4503 67.4609C82.6603 67.4609 82.8603 67.5209 83.0503 67.6309L82.7703 68.4309C82.6203 68.3309 82.4703 68.2809 82.3403 68.2809C82.2103 68.2809 82.1003 68.3209 82.0203 68.3909C81.9403 68.4609 81.8603 68.5909 81.8103 68.7709C81.7603 68.9509 81.7303 69.3409 81.7303 69.9309V70.9909Z" fill="#909090"/>
<path d="M85.0301 67.5516V68.2816H84.4101V69.6716C84.4101 69.9516 84.4101 70.1116 84.4301 70.1616C84.4501 70.2116 84.4701 70.2416 84.5101 70.2816C84.5501 70.3216 84.6001 70.3316 84.6601 70.3316C84.7401 70.3316 84.8701 70.3016 85.0301 70.2416L85.1101 70.9516C84.9001 71.0416 84.6601 71.0916 84.3901 71.0916C84.2301 71.0916 84.0801 71.0616 83.9501 71.0116C83.8201 70.9616 83.7201 70.8816 83.6601 70.8016C83.6001 70.7216 83.5601 70.5916 83.5301 70.4416C83.5101 70.3316 83.5001 70.1216 83.5001 69.8016V68.3016H83.0801V67.5716H83.5001V66.8816L84.4201 66.3516V67.5716H85.0401L85.0301 67.5516Z" fill="#909090"/>
<path d="M87.3008 69.2188C87.3008 68.9188 87.3708 68.6187 87.5208 68.3387C87.6708 68.0587 87.8808 67.8388 88.1508 67.6888C88.4208 67.5388 88.7308 67.4688 89.0708 67.4688C89.5908 67.4688 90.0208 67.6388 90.3508 67.9788C90.6808 68.3188 90.8508 68.7488 90.8508 69.2588C90.8508 69.7688 90.6808 70.2087 90.3508 70.5587C90.0208 70.9087 89.5908 71.0687 89.0808 71.0687C88.7608 71.0687 88.4608 70.9987 88.1808 70.8587C87.9008 70.7187 87.6808 70.5088 87.5308 70.2288C87.3808 69.9488 87.3108 69.6188 87.3108 69.2188H87.3008ZM88.2408 69.2687C88.2408 69.6087 88.3208 69.8687 88.4808 70.0587C88.6408 70.2487 88.8408 70.3288 89.0808 70.3288C89.3208 70.3288 89.5208 70.2387 89.6808 70.0587C89.8408 69.8787 89.9208 69.6087 89.9208 69.2687C89.9208 68.9287 89.8408 68.6687 89.6808 68.4887C89.5208 68.3087 89.3208 68.2188 89.0808 68.2188C88.8408 68.2188 88.6408 68.3087 88.4808 68.4887C88.3208 68.6687 88.2408 68.9287 88.2408 69.2787V69.2687Z" fill="#909090"/>
<path d="M91.1699 67.5502H91.6799V67.2902C91.6799 67.0002 91.7099 66.7802 91.7699 66.6402C91.8299 66.5002 91.9499 66.3802 92.1099 66.2902C92.2699 66.2002 92.4899 66.1602 92.7399 66.1602C92.9899 66.1602 93.2499 66.2002 93.4999 66.2802L93.3799 66.9202C93.2399 66.8902 93.0999 66.8702 92.9599 66.8702C92.8199 66.8702 92.7299 66.9002 92.6799 66.9602C92.6299 67.0202 92.5899 67.1402 92.5899 67.3202V67.5602H93.2699V68.2802H92.5899V71.0102H91.6799V68.2802H91.1699V67.5602V67.5502Z" fill="#909090"/>
<path d="M96.3209 68.5987L95.4909 68.4487C95.5809 68.1187 95.7409 67.8687 95.9709 67.7087C96.2009 67.5487 96.5309 67.4688 96.9809 67.4688C97.3909 67.4688 97.6909 67.5187 97.8909 67.6087C98.0909 67.6987 98.2309 67.8288 98.3109 67.9788C98.3909 68.1288 98.4309 68.3988 98.4309 68.7988V69.8587C98.4309 70.1587 98.4309 70.3887 98.4609 70.5287C98.4909 70.6687 98.5409 70.8287 98.6209 70.9887H97.7209C97.7009 70.9287 97.6709 70.8387 97.6309 70.7188C97.6109 70.6688 97.6009 70.6287 97.6009 70.6087C97.4409 70.7587 97.2809 70.8687 97.1009 70.9487C96.9209 71.0287 96.7309 71.0587 96.5309 71.0587C96.1709 71.0587 95.9009 70.9587 95.6909 70.7687C95.4809 70.5787 95.3809 70.3287 95.3809 70.0387C95.3809 69.8487 95.4309 69.6687 95.5209 69.5187C95.6109 69.3687 95.7409 69.2487 95.9109 69.1687C96.0809 69.0887 96.3209 69.0187 96.6409 68.9587C97.0709 68.8787 97.3609 68.8087 97.5309 68.7387V68.6488C97.5309 68.4688 97.4909 68.3487 97.4009 68.2687C97.3109 68.1887 97.1509 68.1588 96.9109 68.1588C96.7509 68.1588 96.6209 68.1888 96.5309 68.2588C96.4409 68.3288 96.3709 68.4387 96.3109 68.5987H96.3209ZM97.5409 69.3387C97.4209 69.3787 97.2409 69.4288 96.9809 69.4788C96.7209 69.5288 96.5609 69.5887 96.4809 69.6387C96.3609 69.7187 96.3009 69.8287 96.3009 69.9587C96.3009 70.0887 96.3509 70.1987 96.4409 70.2887C96.5309 70.3787 96.6609 70.4287 96.8009 70.4287C96.9609 70.4287 97.1209 70.3787 97.2709 70.2687C97.3809 70.1887 97.4509 70.0887 97.4909 69.9688C97.5109 69.8888 97.5309 69.7387 97.5309 69.5287V69.3487L97.5409 69.3387Z" fill="#909090"/>
<path d="M102.47 70.9887H101.56V69.2288C101.56 68.8588 101.54 68.6188 101.5 68.5088C101.46 68.3988 101.4 68.3188 101.31 68.2588C101.22 68.1988 101.12 68.1687 100.99 68.1687C100.83 68.1687 100.69 68.2088 100.56 68.2988C100.43 68.3888 100.35 68.4987 100.3 68.6387C100.25 68.7787 100.23 69.0487 100.23 69.4287V70.9887H99.3203V67.5387H100.17V68.0488C100.47 67.6588 100.85 67.4688 101.31 67.4688C101.51 67.4688 101.7 67.5088 101.86 67.5788C102.02 67.6488 102.15 67.7487 102.24 67.8587C102.33 67.9687 102.38 68.0987 102.42 68.2387C102.46 68.3787 102.47 68.5887 102.47 68.8487V70.9887Z" fill="#909090"/>
<path d="M105.25 70.9905V66.2305H108.78V67.0405H106.21V68.1005H108.6V68.9005H106.21V70.2005H108.87V71.0005H105.25V70.9905Z" fill="#909090"/>
<path d="M109.68 66.2305H110.64V68.8105C110.64 69.2205 110.65 69.4805 110.68 69.6105C110.72 69.8005 110.82 69.9605 110.97 70.0805C111.12 70.2005 111.34 70.2605 111.6 70.2605C111.86 70.2605 112.08 70.2005 112.22 70.0905C112.36 69.9805 112.44 69.8405 112.47 69.6805C112.5 69.5205 112.51 69.2505 112.51 68.8705V66.2405H113.47V68.7405C113.47 69.3105 113.44 69.7205 113.39 69.9505C113.34 70.1805 113.24 70.3905 113.1 70.5505C112.96 70.7105 112.77 70.8405 112.54 70.9405C112.31 71.0405 112 71.0805 111.62 71.0805C111.17 71.0805 110.82 71.0305 110.59 70.9205C110.36 70.8105 110.17 70.6805 110.03 70.5105C109.89 70.3405 109.8 70.1705 109.76 69.9805C109.7 69.7105 109.67 69.3005 109.67 68.7705V66.2305H109.68Z" fill="#909090"/>
<path d="M118.58 72.3087V70.5788C118.46 70.7288 118.31 70.8587 118.14 70.9487C117.97 71.0387 117.77 71.0788 117.57 71.0788C117.18 71.0788 116.86 70.9287 116.6 70.6387C116.3 70.2987 116.15 69.8287 116.15 69.2387C116.15 68.6887 116.29 68.2488 116.57 67.9388C116.85 67.6288 117.2 67.4688 117.61 67.4688C117.84 67.4688 118.04 67.5188 118.21 67.6188C118.38 67.7188 118.53 67.8687 118.66 68.0587V67.5488H119.5V72.3087H118.59H118.58ZM118.61 69.2288C118.61 68.8788 118.54 68.6088 118.39 68.4388C118.24 68.2688 118.07 68.1787 117.85 68.1787C117.63 68.1787 117.44 68.2688 117.3 68.4388C117.16 68.6088 117.08 68.8887 117.08 69.2687C117.08 69.6487 117.15 69.9187 117.29 70.0887C117.43 70.2587 117.61 70.3387 117.82 70.3387C118.03 70.3387 118.21 70.2487 118.37 70.0587C118.53 69.8687 118.61 69.5887 118.61 69.2188V69.2288Z" fill="#909090"/>
<path d="M122.661 70.9908V70.4708C122.531 70.6508 122.371 70.8008 122.161 70.9108C121.951 71.0208 121.741 71.0708 121.511 71.0708C121.281 71.0708 121.071 71.0208 120.891 70.9208C120.711 70.8208 120.571 70.6708 120.491 70.4908C120.411 70.3108 120.371 70.0508 120.371 69.7308V67.5508H121.281V69.1308C121.281 69.6208 121.301 69.9108 121.331 70.0208C121.361 70.1308 121.421 70.2208 121.511 70.2808C121.601 70.3408 121.711 70.3808 121.851 70.3808C122.011 70.3808 122.151 70.3408 122.271 70.2508C122.391 70.1608 122.481 70.0608 122.521 69.9308C122.561 69.8008 122.591 69.4908 122.591 69.0008V67.5508H123.501V71.0008H122.651L122.661 70.9908Z" fill="#909090"/>
<path d="M125.131 68.5987L124.301 68.4487C124.391 68.1187 124.551 67.8687 124.781 67.7087C125.011 67.5487 125.341 67.4688 125.791 67.4688C126.201 67.4688 126.501 67.5187 126.701 67.6087C126.901 67.6987 127.041 67.8288 127.121 67.9788C127.201 68.1288 127.241 68.3988 127.241 68.7988V69.8587C127.241 70.1587 127.241 70.3887 127.271 70.5287C127.301 70.6687 127.351 70.8287 127.431 70.9887H126.531C126.511 70.9287 126.481 70.8387 126.441 70.7188C126.421 70.6688 126.411 70.6287 126.411 70.6087C126.251 70.7587 126.091 70.8687 125.911 70.9487C125.731 71.0287 125.541 71.0587 125.341 71.0587C124.991 71.0587 124.711 70.9587 124.501 70.7687C124.291 70.5787 124.191 70.3287 124.191 70.0387C124.191 69.8487 124.241 69.6687 124.331 69.5187C124.421 69.3687 124.551 69.2487 124.721 69.1687C124.891 69.0887 125.131 69.0187 125.451 68.9587C125.881 68.8787 126.171 68.8087 126.341 68.7387V68.6488C126.341 68.4688 126.301 68.3487 126.211 68.2687C126.121 68.1887 125.961 68.1588 125.721 68.1588C125.561 68.1588 125.431 68.1888 125.341 68.2588C125.251 68.3288 125.181 68.4387 125.121 68.5987H125.131ZM126.351 69.3387C126.231 69.3787 126.051 69.4288 125.791 69.4788C125.531 69.5288 125.371 69.5887 125.291 69.6387C125.171 69.7187 125.111 69.8287 125.111 69.9587C125.111 70.0887 125.161 70.1987 125.251 70.2887C125.341 70.3787 125.471 70.4287 125.611 70.4287C125.771 70.4287 125.931 70.3787 126.081 70.2687C126.191 70.1887 126.261 70.0887 126.301 69.9688C126.321 69.8888 126.341 69.7387 126.341 69.5287V69.3487L126.351 69.3387Z" fill="#909090"/>
<path d="M128.15 70.9905V66.2305H129.06V70.9905H128.15Z" fill="#909090"/>
<path d="M130 67.0783V66.2383H130.91V67.0783H130ZM130 70.9983V67.5483H130.91V70.9983H130Z" fill="#909090"/>
<path d="M133.421 67.5516V68.2816H132.801V69.6716C132.801 69.9516 132.801 70.1116 132.821 70.1616C132.841 70.2116 132.861 70.2416 132.901 70.2816C132.941 70.3216 132.991 70.3316 133.051 70.3316C133.131 70.3316 133.261 70.3016 133.421 70.2416L133.501 70.9516C133.291 71.0416 133.051 71.0916 132.781 71.0916C132.621 71.0916 132.471 71.0616 132.341 71.0116C132.211 70.9616 132.111 70.8816 132.051 70.8016C131.991 70.7216 131.951 70.5916 131.921 70.4416C131.901 70.3316 131.891 70.1216 131.891 69.8016V68.3016H131.471V67.5716H131.891V66.8816L132.811 66.3516V67.5716H133.431L133.421 67.5516Z" fill="#909090"/>
<path d="M133.631 67.5491H134.601L135.421 69.9991L136.231 67.5491H137.171L135.951 70.8691L135.731 71.4691C135.651 71.6691 135.571 71.8291 135.501 71.9291C135.431 72.0291 135.341 72.1191 135.251 72.1891C135.161 72.2591 135.041 72.3091 134.901 72.3391C134.761 72.3691 134.611 72.3991 134.431 72.3991C134.251 72.3991 134.081 72.3791 133.911 72.3391L133.831 71.6291C133.971 71.6591 134.101 71.6691 134.221 71.6691C134.431 71.6691 134.591 71.6091 134.691 71.4791C134.791 71.3491 134.871 71.1991 134.921 70.9991L133.611 67.5391L133.631 67.5491Z" fill="#909090"/>
<path d="M142.74 70.9887H141.83V69.2288C141.83 68.8588 141.81 68.6188 141.77 68.5088C141.73 68.3988 141.67 68.3188 141.58 68.2588C141.49 68.1988 141.39 68.1687 141.26 68.1687C141.1 68.1687 140.96 68.2088 140.83 68.2988C140.7 68.3888 140.62 68.4987 140.57 68.6387C140.52 68.7787 140.5 69.0487 140.5 69.4287V70.9887H139.59V67.5387H140.44V68.0488C140.74 67.6588 141.12 67.4688 141.58 67.4688C141.78 67.4688 141.97 67.5088 142.13 67.5788C142.29 67.6488 142.42 67.7487 142.51 67.8587C142.6 67.9687 142.66 68.0987 142.69 68.2387C142.72 68.3787 142.74 68.5887 142.74 68.8487V70.9887Z" fill="#909090"/>
<path d="M145.66 69.9009L146.57 70.0509C146.45 70.3809 146.27 70.6409 146.02 70.8109C145.77 70.9809 145.45 71.0709 145.07 71.0709C144.47 71.0709 144.03 70.8709 143.74 70.4809C143.51 70.1709 143.4 69.7709 143.4 69.2909C143.4 68.7209 143.55 68.2709 143.85 67.9509C144.15 67.6309 144.53 67.4609 144.98 67.4609C145.49 67.4609 145.9 67.6309 146.19 67.9709C146.48 68.3109 146.63 68.8309 146.62 69.5309H144.33C144.33 69.8009 144.41 70.0109 144.55 70.1609C144.69 70.3109 144.87 70.3909 145.08 70.3909C145.22 70.3909 145.34 70.3509 145.44 70.2709C145.54 70.1909 145.61 70.0709 145.66 69.8909V69.9009ZM145.71 68.9809C145.71 68.7209 145.64 68.5209 145.51 68.3809C145.38 68.2409 145.22 68.1709 145.04 68.1709C144.84 68.1709 144.68 68.2409 144.55 68.3909C144.42 68.5409 144.36 68.7309 144.36 68.9809H145.72H145.71Z" fill="#909090"/>
<path d="M148.94 67.5516V68.2816H148.32V69.6716C148.32 69.9516 148.32 70.1116 148.34 70.1616C148.36 70.2116 148.38 70.2416 148.42 70.2816C148.46 70.3216 148.51 70.3316 148.57 70.3316C148.65 70.3316 148.78 70.3016 148.94 70.2416L149.02 70.9516C148.81 71.0416 148.57 71.0916 148.3 71.0916C148.14 71.0916 147.99 71.0616 147.86 71.0116C147.73 70.9616 147.63 70.8816 147.57 70.8016C147.51 70.7216 147.47 70.5916 147.44 70.4416C147.42 70.3316 147.41 70.1216 147.41 69.8016V68.3016H146.99V67.5716H147.41V66.8816L148.33 66.3516V67.5716H148.95L148.94 67.5516Z" fill="#909090"/>
<path d="M150.221 70.9891L149.131 67.5391H150.021L150.671 69.7991L151.261 67.5391H152.141L152.711 69.7991L153.371 67.5391H154.271L153.161 70.9891H152.281L151.691 68.7691L151.111 70.9891H150.221Z" fill="#909090"/>
<path d="M154.541 69.2188C154.541 68.9188 154.611 68.6187 154.761 68.3387C154.911 68.0587 155.121 67.8388 155.391 67.6888C155.661 67.5388 155.971 67.4688 156.311 67.4688C156.831 67.4688 157.261 67.6388 157.591 67.9788C157.921 68.3188 158.091 68.7488 158.091 69.2588C158.091 69.7688 157.921 70.2087 157.591 70.5587C157.261 70.9087 156.831 71.0687 156.321 71.0687C156.001 71.0687 155.701 70.9987 155.421 70.8587C155.141 70.7187 154.921 70.5088 154.771 70.2288C154.621 69.9488 154.551 69.6188 154.551 69.2188H154.541ZM155.481 69.2687C155.481 69.6087 155.561 69.8687 155.721 70.0587C155.881 70.2487 156.081 70.3288 156.321 70.3288C156.561 70.3288 156.761 70.2387 156.921 70.0587C157.081 69.8787 157.161 69.6087 157.161 69.2687C157.161 68.9287 157.081 68.6687 156.921 68.4887C156.761 68.3087 156.561 68.2188 156.321 68.2188C156.081 68.2188 155.881 68.3087 155.721 68.4887C155.561 68.6687 155.481 68.9287 155.481 69.2787V69.2687Z" fill="#909090"/>
<path d="M159.681 70.9909H158.771V67.5409H159.621V68.0309C159.771 67.8009 159.901 67.6509 160.011 67.5709C160.121 67.4909 160.261 67.4609 160.401 67.4609C160.611 67.4609 160.811 67.5209 161.001 67.6309L160.721 68.4309C160.571 68.3309 160.421 68.2809 160.291 68.2809C160.161 68.2809 160.051 68.3209 159.971 68.3909C159.891 68.4609 159.811 68.5909 159.761 68.7709C159.711 68.9509 159.681 69.3409 159.681 69.9309V70.9909Z" fill="#909090"/>
<path d="M161.371 70.9905V66.2305H162.281V68.7605L163.351 67.5505H164.471L163.291 68.8105L164.551 71.0005H163.571L162.701 69.4505L162.271 69.8905V70.9905H161.361H161.371Z" fill="#909090"/>
</svg>
